<svg width="50" height="50" viewBox="0 0 50 50" fill="none" xmlns="http://www.w3.org/2000/svg">
<path d="M39.5833 20.8333H10.4167C8.11548 20.8333 6.25 22.6988 6.25 25V41.6667C6.25 43.9679 8.11548 45.8333 10.4167 45.8333H39.5833C41.8845 45.8333 43.75 43.9679 43.75 41.6667V25C43.75 22.6988 41.8845 20.8333 39.5833 20.8333Z" stroke="#3C3277" stroke-width="2" stroke-linecap="round" stroke-linejoin="round"/>
<path d="M12.5 12.5C12.5 10.8424 13.1585 9.25269 14.3306 8.08058C15.5027 6.90848 17.0924 6.25 18.75 6.25H31.25C32.9076 6.25 34.4973 6.90848 35.6694 8.08058C36.8415 9.25269 37.5 10.8424 37.5 12.5V20.8333H12.5V12.5Z" stroke="#3C3277" stroke-width="2" stroke-linecap="round" stroke-linejoin="round"/>
</svg>
