<svg width="50" height="50" viewBox="0 0 50 50" fill="none" xmlns="http://www.w3.org/2000/svg">
<path d="M45.293 41.4062C42.3775 36.3838 37.7107 32.6143 32.1875 30.8203C34.8349 29.246 36.8922 26.8461 38.0434 23.9891C39.1946 21.1322 39.3759 17.9763 38.5596 15.0064C37.7433 12.0364 35.9744 9.41654 33.5247 7.54935C31.0751 5.68216 28.0801 4.67088 25 4.67088C21.9198 4.67088 18.9249 5.68216 16.4752 7.54935C14.0256 9.41654 12.2567 12.0364 11.4404 15.0064C10.624 17.9763 10.8054 21.1322 11.9566 23.9891C13.1077 26.8461 15.1651 29.246 17.8125 30.8203C12.2892 32.6143 7.62251 36.3838 4.70702 41.4062C4.58473 41.5837 4.50046 41.7844 4.4595 41.996C4.41853 42.2075 4.42176 42.4252 4.46899 42.6355C4.51621 42.8457 4.60641 43.0439 4.7339 43.2176C4.8614 43.3913 5.02345 43.5367 5.20986 43.6448C5.39627 43.7529 5.60302 43.8212 5.81711 43.8455C6.0312 43.8699 6.24801 43.8496 6.45391 43.7861C6.65981 43.7227 6.85036 43.6173 7.01357 43.4766C7.17679 43.3359 7.30915 43.163 7.40233 42.9687C9.18823 39.8828 11.7543 37.3207 14.843 35.5395C17.9317 33.7583 21.4345 32.8207 25 32.8207C28.5655 32.8207 32.0683 33.7583 35.157 35.5395C38.2457 37.3207 40.8117 39.8828 42.5976 42.9687C42.6908 43.163 42.8232 43.3359 42.9864 43.4766C43.1496 43.6173 43.3402 43.7227 43.5461 43.7861C43.752 43.8496 43.9688 43.8699 44.1829 43.8455C44.397 43.8212 44.6037 43.7529 44.7901 43.6448C44.9765 43.5367 45.1386 43.3913 45.2661 43.2176C45.3936 43.0439 45.4838 42.8457 45.531 42.6355C45.5782 42.4252 45.5814 42.2075 45.5405 41.996C45.4995 41.7844 45.4152 41.5837 45.293 41.4062ZM14.0625 18.75C14.0625 16.5868 14.704 14.4721 15.9058 12.6734C17.1076 10.8748 18.8158 9.4729 20.8144 8.64506C22.813 7.81723 25.0121 7.60063 27.1338 8.02266C29.2555 8.44468 31.2043 9.48638 32.734 11.016C34.2636 12.5457 35.3053 14.4945 35.7273 16.6162C36.1494 18.7379 35.9328 20.937 35.1049 22.9356C34.2771 24.9342 32.8752 26.6424 31.0765 27.8442C29.2779 29.046 27.1632 29.6875 25 29.6875C22.0992 29.6875 19.3172 28.5352 17.266 26.484C15.2148 24.4328 14.0625 21.6508 14.0625 18.75Z" fill="#3C3277"/>
</svg>
